<?xml version="1.0" standalone="no"?>
<!DOCTYPE svg PUBLIC "-//W3C//DTD SVG 20010904//EN"
 "http://www.w3.org/TR/2001/REC-SVG-20010904/DTD/svg10.dtd">
<svg version="1.0" xmlns="http://www.w3.org/2000/svg"
 width="225.000000pt" height="225.000000pt" viewBox="0 0 225.000000 225.000000"
 preserveAspectRatio="xMidYMid meet">
<metadata>
Created by potrace 1.14, written by Peter Selinger 2001-2017
</metadata>
<g transform="translate(0.000000,225.000000) scale(0.100000,-0.100000)"
fill="#000000" stroke="none">
<path d="M892 2189 c-266 -56 -528 -232 -681 -458 -138 -203 -207 -474 -181
-710 29 -269 140 -493 336 -680 141 -135 290 -220 479 -271 101 -28 334 -38
457 -21 213 31 433 141 594 297 233 227 359 570 324 883 -54 492 -417 882
-899 966 -118 21 -314 18 -429 -6z m422 -134 c224 -42 472 -203 596 -384 119
-176 171 -343 171 -549 0 -133 -20 -241 -64 -341 -107 -248 -250 -400 -479
-511 -158 -77 -198 -85 -413 -85 -182 0 -194 2 -275 29 -47 15 -130 51 -185
79 -88 44 -114 64 -211 161 -213 214 -293 416 -281 716 6 156 21 217 83 349
55 118 112 197 205 287 139 132 280 207 470 249 86 18 289 19 383 0z"/>
<path d="M300 1140 l0 -300 460 0 460 0 0 38 0 39 -137 6 c-75 4 -262 7 -416
7 l-280 0 5 160 c3 88 7 162 10 166 3 3 85 -47 182 -112 l176 -117 230 153
230 153 0 54 0 53 -460 0 -460 0 0 -300z m770 205 c0 -5 -294 -203 -307 -207
-4 -1 -80 46 -168 105 l-160 107 318 0 c174 0 317 -2 317 -5z"/>
<path d="M1196 1275 c-54 -19 -85 -44 -107 -85 -35 -65 -19 -149 38 -202 44
-42 111 -50 392 -46 211 3 251 5 278 20 84 46 116 154 71 233 -69 119 -258
113 -318 -10 -22 -45 -23 -86 -5 -142 7 -22 5 -23 -64 -23 -39 0 -71 3 -71 6
0 4 5 24 11 44 26 86 -30 177 -124 205 -60 18 -52 18 -101 0z m122 -111 c38
-43 22 -98 -38 -129 -49 -25 -120 18 -120 73 0 82 102 119 158 56z m425 25
c59 -30 73 -90 31 -133 -39 -38 -93 -36 -128 5 -30 35 -33 65 -10 97 26 38 69
50 107 31z"/>
</g>
</svg>
